Coordinates
version=1
nRows=32
nColumns=22
inDegrees=yes

Units are S.I. units (second, meters, Newtons, ...)
If the header above contains a line with 'inDegrees', this indicates whether rotational values are in degrees (yes) or radians (no).

endheader
time	pelvis_tilt	pelvis_list	pelvis_rotation	pelvis_tx	pelvis_ty	pelvis_tz	hip_flexion_r	hip_adduction_r	hip_rotation_r	knee_angle_r	ankle_angle_r	subtalar_angle_r	hip_flexion_l	hip_adduction_l	hip_rotation_l	knee_angle_l	ankle_angle_l	subtalar_angle_l	lumbar_extension	lumbar_bending	lumbar_rotation
      2.19000000	      2.19743105	     -2.76284780	     -6.61628244	     -0.22357404	      0.89644916	     -0.28314246	     -0.30129257	      5.63744011	     -8.66801682	    -16.94519009	     20.02720290	    -10.17269300	     23.99480063	     -4.69144413	     -0.12397535	    -61.83128555	      5.94586154	     -0.48214175	    -14.60801215	      1.68086585	      3.52651901
      2.20000000	      2.44038073	     -2.52565938	     -6.77742063	     -0.21498149	      0.89641803	     -0.28110471	     -1.22731296	      5.44240612	     -8.42501431	    -16.82902544	     20.41947252	    -10.25230696	     24.68095347	     -4.77009065	     -0.88506023	    -60.02083055	      6.59000029	     -0.92664942	    -14.80223261	      1.27142239	      3.74983504
      2.21000000	      2.68164034	     -2.31155989	     -6.92226573	     -0.20632929	      0.89622439	     -0.27916358	     -2.14256866	      5.26348141	     -8.16375130	    -16.74340739	     20.82734495	    -10.37264146	     25.26094303	     -4.87656029	     -1.68413193	    -58.01226210	      7.15493656	     -1.42122315	    -14.98843672	      0.90015047	      3.92362166
      2.22000000	      2.89721828	     -2.11559817	     -7.07455111	     -0.19764097	      0.89583719	     -0.27730778	     -3.01340139	      5.09323822	     -7.89544560	    -16.69739259	     21.25622003	    -10.49208386	     25.75579882	     -5.00075960	     -2.52316488	    -55.81650626	      7.62234589	     -1.76729719	    -15.14477686	      0.55978523	      4.11186139
      2.23000000	      3.08639502	     -1.94137038	     -7.23419938	     -0.18890144	      0.89525599	     -0.27553641	     -3.83376343	      4.93208601	     -7.64114280	    -16.70655182	     21.70256621	    -10.59659656	     26.16692740	     -5.14881554	     -3.41624844	    -53.45328887	      7.99624673	     -1.93865376	    -15.26912330	      0.25494443	      4.31020223
      2.24000000	      3.27011243	     -1.78604397	     -7.38583208	     -0.18010125	      0.89454616	     -0.27388277	     -4.67089722	      4.78503880	     -7.35214015	    -16.68335270	     22.14023789	    -10.72248056	     26.47173837	     -5.28503423	     -4.31530502	    -50.93187338	      8.26654178	     -2.00909923	    -15.38980111	     -0.01441623	      4.48060008
      2.25000000	      3.42648118	     -1.64976039	     -7.54744885	     -0.17123998	      0.89365353	     -0.27230179	     -5.46079147	      4.64377103	     -7.07991139	    -16.70670405	     22.58804804	    -10.82876102	     26.70500489	     -5.43278196	     -5.26328334	    -48.29598945	      8.45438143	     -1.89246312	    -15.47784196	     -0.25337496	      4.65406247
      2.26000000	      3.53486286	     -1.52812469	     -7.72755248	     -0.16231760	      0.89255001	     -0.27078027	     -6.17485598	      4.50333503	     -6.83023420	    -16.78590419	     23.05487787	    -10.87903672	     26.90186884	     -5.58748222	     -6.25593085	    -45.58523882	      8.55451964	     -1.65011780	    -15.50981297	     -0.46588506	      4.84493788
      2.27000000	      3.66592510	     -1.42762307	     -7.89804288	     -0.15330887	      0.89138886	     -0.26934845	     -6.93952709	      4.37556020	     -6.54573136	    -16.83266669	     23.47185905	    -10.93064473	     26.98501506	     -5.71497641	     -7.22265840	    -42.80911684	      8.55044088	     -1.20041669	    -15.57066302	     -0.64706103	      4.98464170
      2.28000000	      3.74555866	     -1.33428563	     -8.09164110	     -0.14421855	      0.89002818	     -0.26798835	     -7.61522721	      4.23581421	     -6.29629242	    -16.95361146	     23.90951009	    -10.92800497	     27.05917209	     -5.82992080	     -8.20164719	    -40.03529425	      8.49592288	     -0.68834026	    -15.56836303	     -0.80453019	      5.14537561
      2.29000000	      3.80204273	     -1.25024990	     -8.29607429	     -0.13503931	      0.88854019	     -0.26669558	     -8.25669683	      4.09107247	     -6.06296381	    -17.10313695	     24.33538283	    -10.88609805	     27.10100518	     -5.91270488	     -9.12673498	    -37.28766737	      8.39853102	     -0.11183582	    -15.53855022	     -0.94413022	      5.30039712
      2.30000000	      3.83894917	     -1.16871740	     -8.51757061	     -0.12576169	      0.88693977	     -0.26548577	     -8.85544930	      3.93014126	     -5.83689262	    -17.30529650	     24.75798500	    -10.81120118	     27.12239625	     -5.95747233	     -9.97710684	    -34.61348544	      8.27092353	      0.45972553	    -15.48369405	     -1.06740751	      5.45568702
      2.31000000	      3.86335225	     -1.08723019	     -8.75378762	     -0.11637603	      0.88525881	     -0.26435548	     -9.42612701	      3.75155281	     -5.61700850	    -17.54565842	     25.16983899	    -10.71345063	     27.12551464	     -5.95908457	    -10.71259116	    -32.04462829	      8.13436170	      1.02000387	    -15.41102117	     -1.18065672	      5.60527337
      2.32000000	      3.87942432	     -1.00203710	     -9.00390603	     -0.10685721	      0.88352826	     -0.26331848	     -9.98043967	      3.55167824	     -5.39924575	    -17.81145784	     25.56705407	    -10.60278916	     27.11409410	     -5.91498405	    -11.30179950	    -29.61413704	      8.00663972	      1.54393332	    -15.32318815	     -1.28614084	      5.75544879
      2.33000000	      3.89211202	     -0.91389079	     -9.26028964	     -0.09718823	      0.88177447	     -0.26236278	    -10.52757780	      3.33445660	     -5.18321835	    -18.09802598	     25.93388813	    -10.47975920	     27.09096779	     -5.83144039	    -11.71526203	    -27.35530550	      7.91139991	      2.04483201	    -15.22410924	     -1.38654295	      5.89219516
      2.34000000	      3.90779033	     -0.82198382	     -9.53205311	     -0.08735546	      0.88003168	     -0.26146708	    -11.08016409	      3.09653884	     -4.96239683	    -18.39428473	     26.27259067	    -10.35164712	     27.05261195	     -5.72499500	    -11.97080051	    -25.29835092	      7.84253346	      2.48707965	    -15.11908408	     -1.48633788	      6.04140735
      2.35000000	      3.92113715	     -0.73396901	     -9.81129391	     -0.07736703	      0.87831035	     -0.26060980	    -11.63493808	      2.85165571	     -4.73732612	    -18.69664765	     26.55819275	    -10.20039140	     27.01329040	     -5.61370490	    -12.05834288	    -23.47813999	      7.81683090	      2.90727055	    -15.00584516	     -1.57987904	      6.19045716
      2.36000000	      3.90740207	     -0.63552381	    -10.10879283	     -0.06720503	      0.87658318	     -0.25977429	    -12.15275163	      2.58251864	     -4.51879282	    -19.02529532	     26.81872492	    -10.05872763	     27.00612072	     -5.50658359	    -12.03796127	    -21.93004660	      7.81538131	      3.21352410	    -14.84683996	     -1.68006548	      6.36805338
      2.37000000	      3.90641295	     -0.54785112	    -10.41591299	     -0.05688900	      0.87493928	     -0.25890708	    -12.68345598	      2.31669317	     -4.26852795	    -19.37321724	     26.99539048	     -9.87758719	     26.98519108	     -5.42712785	    -11.93283491	    -20.66949291	      7.83223365	      3.51066450	    -14.69838082	     -1.78340663	      6.53605677
      2.38000000	      3.90105228	     -0.45954524	    -10.72173745	     -0.04635600	      0.87337086	     -0.25807141	    -13.22153179	      2.04056765	     -4.01007936	    -19.71548511	     27.07815995	     -9.63257474	     26.97427710	     -5.36424685	    -11.79603630	    -19.72274801	      7.84167927	      3.79166938	    -14.52955129	     -1.88483262	      6.73638915
      2.39000000	      3.88333057	     -0.35901988	    -11.02469711	     -0.03557466	      0.87187142	     -0.25725902	    -13.75821017	      1.74229688	     -3.76115648	    -20.05047063	     27.06586725	     -9.27567496	     26.98688298	     -5.30825619	    -11.65941690	    -19.10844293	      7.83105686	      4.04346954	    -14.32276468	     -1.99947222	      6.95005174
      2.40000000	      3.83364964	     -0.24333945	    -11.32209013	     -0.02462041	      0.87041837	     -0.25650385	    -14.21523879	      1.42984929	     -3.45443635	    -20.47698872	     26.97714124	     -8.99106359	     27.05059627	     -5.25399500	    -11.53546873	    -18.82887273	      7.74764093	      4.13025591	    -14.06981317	     -2.12064633	      7.15214638
      2.41000000	      3.77693185	     -0.09553844	    -11.60351901	     -0.01338816	      0.86907158	     -0.25582202	    -14.65934313	      1.07914537	     -3.14232284	    -20.91905152	     26.78081545	     -8.61878163	     27.13025944	     -5.17119147	    -11.44938945	    -18.87146679	      7.58981054	      4.15243334	    -13.77890562	     -2.27256989	      7.36090185
      2.42000000	      3.70023729	      0.09515926	    -11.84584293	     -0.00186715	      0.86781132	     -0.25528136	    -15.06279518	      0.68589955	     -2.84010548	    -21.39945387	     26.46361430	     -8.00318695	     27.24527354	     -5.02720088	    -11.34651026	    -19.22109786	      7.39320849	      4.06488143	    -13.43427382	     -2.45300202	      7.52479695
      2.43000000	      3.60182515	      0.31899453	    -12.05773036	      0.00986929	      0.86666324	     -0.25487634	    -15.39797892	      0.26439049	     -2.51618623	    -21.95487583	     26.01506033	     -7.56247757	     27.41076154	     -4.83423891	    -11.22485378	    -19.87459223	      7.00726076	      3.87662631	    -13.04900288	     -2.65236851	      7.68134619
      2.44000000	      3.48069679	      0.58728279	    -12.21651658	      0.02189941	      0.86562913	     -0.25465873	    -15.68471494	     -0.19910327	     -2.24131413	    -22.54686106	     25.39195519	     -6.96382419	     27.63004649	     -4.55708265	    -11.02666810	    -20.80251331	      6.55369318	      3.56640893	    -12.60656004	     -2.87979302	      7.83528979
      2.45000000	      3.35388200	      0.90898256	    -12.33001847	      0.03411106	      0.86475053	     -0.25463569	    -15.89156673	     -0.70684169	     -1.92722638	    -23.24946994	     24.64204843	     -6.44844113	     27.88153347	     -4.17487853	    -10.72954934	    -21.94022925	      5.96141348	      3.21410458	    -12.14773857	     -3.14349377	      7.92840966
      2.46000000	      3.22220419	      1.27219915	    -12.36975744	      0.04659265	      0.86403748	     -0.25484429	    -16.05414099	     -1.24939900	     -1.67083063	    -24.00871003	     23.63300629	     -5.78086871	     28.16932158	     -3.67992862	    -10.30406509	    -23.26000615	      5.43287058	      2.72474906	    -11.66199796	     -3.42972869	      8.01490975
      2.47000000	      3.10606628	      1.68990107	    -12.35333800	      0.05922669	      0.86353140	     -0.25525553	    -16.13368846	     -1.83812912	     -1.40995744	    -24.91220669	     22.43985882	     -5.19242173	     28.45743855	     -3.05339030	     -9.75001109	    -24.68130093	      4.90985149	      2.18844559	    -11.19037928	     -3.76238741	      8.07512404
      2.48000000	      3.02077661	      2.15230413	    -12.28386346	      0.07202654	      0.86327023	     -0.25582568	    -16.15518761	     -2.45662514	     -1.11113172	    -25.94557115	     20.99484588	     -4.56687776	     28.70242262	     -2.30731819	     -9.11804275	    -26.12827609	      4.51619384	      1.54235477	    -10.75040004	     -4.13783046	      8.08840474
      2.49000000	      2.98311551	      2.64713514	    -12.17782866	      0.08491942	      0.86327048	     -0.25651035	    -16.09474477	     -3.10350984	     -0.80614721	    -27.17233174	     19.31940983	     -3.95921665	     28.86347732	     -1.46565325	     -8.46000622	    -27.53624336	      4.24574899	      0.81806785	    -10.37271955	     -4.55387002	      8.12278816
      2.50000000	      2.96079272	      3.18001319	    -12.04501104	      0.09786986	      0.86347463	     -0.25725614	    -15.89074286	     -3.76689144	     -0.44859874	    -28.63071891	     17.45487034	     -3.44109456	     28.93485725	     -0.53837149	     -7.79975949	    -28.81591396	      4.16634946	      0.07004275	    -10.01755244	     -5.01481609	      8.14844097
